; Drill file
; Format: 3.3 (000.000)
M48
METRIC
T01C0.3
T02C0.6
T03C0.72
T04C0.9
%
G05
G90
T01
X012080Y002110
X026670Y007940
X026670Y011110
X028580Y011110
X024450Y013020
X034610Y007620
X038650Y005770
X036830Y012700
X041590Y012700
X047170Y006800
X047170Y005530
X054480Y001720
X054480Y010290
T02
X041590Y003970
X041590Y005870
X041590Y007700
T03
X013890Y-002460
X013890Y000080
T04
X005720Y010720
X008260Y010640
X008260Y015240
X005720Y015240
X010800Y015240
X013340Y015240
M30
