%FSLAX34Y34*%
%MOMM*%
%LNSILK_TOP*%
G71*
G01*
%ADD10C, 2.20*%
%ADD11R, 4.00X2.00*%
%ADD12C, 1.50*%
%ADD13C, 1.00*%
%ADD14C, 0.60*%
%ADD15C, 2.00*%
%ADD16C, 2.00*%
%LPD*%
X57155Y107161D02*
G54D10*
D03*
X82555Y106368D02*
G54D10*
D03*
X19050Y79375D02*
G54D11*
D03*
X19050Y46275D02*
G54D11*
D03*
X415925Y76999D02*
G54D12*
D03*
X415925Y58742D02*
G54D12*
D03*
X415925Y39692D02*
G54D12*
D03*
X266705Y79375D02*
G54D13*
D03*
X368305Y127000D02*
G54D13*
D03*
X415930Y127000D02*
G54D13*
D03*
G54D14*
X368300Y127000D02*
X415925Y127000D01*
X346080Y76200D02*
G54D13*
D03*
G54D14*
X346075Y76200D02*
X412750Y76200D01*
G54D14*
X31750Y79375D02*
X269875Y79375D01*
X285755Y111125D02*
G54D13*
D03*
G54D14*
X34925Y50800D02*
X111125Y50800D01*
X130175Y36512D01*
X160338Y36512D01*
X177800Y50800D01*
X269875Y50800D01*
X285750Y63500D01*
X285750Y111125D01*
X57168Y152382D02*
G54D15*
D03*
X82568Y152382D02*
G54D15*
D03*
X107968Y152382D02*
G54D15*
D03*
X133368Y152382D02*
G54D15*
D03*
G54D14*
X57150Y152400D02*
X57150Y107950D01*
X53975Y104775D01*
G54D14*
X82550Y152400D02*
X82550Y107950D01*
X85725Y104775D01*
X244480Y130175D02*
G54D13*
D03*
X266705Y111125D02*
G54D13*
D03*
G54D14*
X133350Y152400D02*
X133350Y142875D01*
X146050Y130175D01*
X244475Y130175D01*
G54D14*
X107950Y152400D02*
X107950Y136525D01*
X133350Y111125D01*
X266700Y111125D01*
G36*
X148924Y-9224D02*
X128924Y-9224D01*
X128924Y10776D01*
X148924Y10776D01*
X148924Y-9224D01*
G37*
X138924Y-24624D02*
G54D16*
D03*
X493950Y77488D02*
G54D11*
D03*
X544750Y42562D02*
G54D11*
D03*
X493950Y42562D02*
G54D11*
D03*
X544750Y77488D02*
G54D11*
D03*
X544755Y17162D02*
G54D13*
D03*
G54D14*
X544750Y17162D02*
X544750Y39388D01*
X544755Y102888D02*
G54D13*
D03*
G54D14*
X544750Y102888D02*
X544750Y80662D01*
X471730Y67962D02*
G54D13*
D03*
X471730Y55262D02*
G54D13*
D03*
G54D14*
X481250Y45738D02*
X471725Y55262D01*
G54D14*
X471725Y67962D02*
X478075Y74312D01*
X120755Y21125D02*
G54D13*
D03*
G54D14*
X121588Y21588D02*
X129381Y21431D01*
X352144Y21350D01*
X385000Y55000D01*
X386549Y57712D02*
G54D13*
D03*
G54D14*
X138906Y-24606D02*
X164306Y-23812D01*
X164306Y21431D01*
M02*
